<svg width="20" height="19" viewBox="0 0 20 19" fill="none" xmlns="http://www.w3.org/2000/svg">
<path d="M8.33336 15.6667C8.33329 15.8215 8.37637 15.9733 8.45777 16.1051C8.53917 16.2368 8.65567 16.3433 8.79419 16.4125L10.4609 17.2458C10.5879 17.3093 10.7291 17.3393 10.8711 17.3329C11.013 17.3264 11.1509 17.2838 11.2717 17.2091C11.3925 17.1344 11.4922 17.03 11.5614 16.9059C11.6305 16.7818 11.6668 16.6421 11.6667 16.5V10.6667C11.6669 10.2537 11.8204 9.85542 12.0975 9.54917L18.1167 2.89167C18.2246 2.77213 18.2955 2.6239 18.3209 2.4649C18.3464 2.3059 18.3252 2.14294 18.2599 1.99573C18.1947 1.84852 18.0882 1.72335 17.9534 1.63538C17.8185 1.5474 17.661 1.50038 17.5 1.5H2.50003C2.33886 1.50006 2.18118 1.54685 2.04607 1.6347C1.91096 1.72255 1.80422 1.84769 1.73878 1.99497C1.67334 2.14225 1.65201 2.30534 1.67738 2.46449C1.70274 2.62364 1.77371 2.77203 1.88169 2.89167L7.90253 9.54917C8.17964 9.85542 8.33317 10.2537 8.33336 10.6667V15.6667Z" stroke="#212121" stroke-width="2" stroke-linecap="round" stroke-linejoin="round"/>
</svg>
