<svg width="14" height="15" viewBox="0 0 14 15" fill="none" xmlns="http://www.w3.org/2000/svg">
<path d="M9.91667 7.5V9.83333C9.91667 9.98804 9.85521 10.1364 9.74581 10.2458C9.63642 10.3552 9.48804 10.4167 9.33333 10.4167H7" stroke="#454545" stroke-width="1.5" stroke-linecap="round" stroke-linejoin="round"/>
<path d="M9.91699 2.25H11.0837C11.3931 2.25 11.6898 2.37292 11.9086 2.59171C12.1274 2.8105 12.2503 3.10725 12.2503 3.41667V4.58333" stroke="#454545" stroke-width="1.5" stroke-linecap="round" stroke-linejoin="round"/>
<path d="M9.91699 5.16683V4.5835" stroke="#454545" stroke-width="1.5" stroke-linecap="round" stroke-linejoin="round"/>
<path d="M12.2503 10.4165V11.5832C12.2503 11.8926 12.1274 12.1893 11.9086 12.4081C11.6898 12.6269 11.3931 12.7498 11.0837 12.7498H9.91699" stroke="#454545" stroke-width="1.5" stroke-linecap="round" stroke-linejoin="round"/>
<path d="M1.75 4.58333V3.41667C1.75 3.10725 1.87292 2.8105 2.09171 2.59171C2.3105 2.37292 2.60725 2.25 2.91667 2.25H4.08333" stroke="#454545" stroke-width="1.5" stroke-linecap="round" stroke-linejoin="round"/>
<path d="M4.08301 10.4165H4.09301" stroke="#454545" stroke-width="1.5" stroke-linecap="round" stroke-linejoin="round"/>
<path d="M4.08333 12.7498H2.91667C2.60725 12.7498 2.3105 12.6269 2.09171 12.4081C1.87292 12.1893 1.75 11.8926 1.75 11.5832V10.4165" stroke="#454545" stroke-width="1.5" stroke-linecap="round" stroke-linejoin="round"/>
<path d="M6.41634 4.5835H4.66634C4.34418 4.5835 4.08301 4.84466 4.08301 5.16683V6.91683C4.08301 7.239 4.34418 7.50016 4.66634 7.50016H6.41634C6.73851 7.50016 6.99967 7.239 6.99967 6.91683V5.16683C6.99967 4.84466 6.73851 4.5835 6.41634 4.5835Z" stroke="#454545" stroke-width="1.5" stroke-linecap="round" stroke-linejoin="round"/>
</svg>
